<?xml version="1.0" standalone="no"?>
<!DOCTYPE svg PUBLIC "-//W3C//DTD SVG 20010904//EN"
 "http://www.w3.org/TR/2001/REC-SVG-20010904/DTD/svg10.dtd">
<svg version="1.0" xmlns="http://www.w3.org/2000/svg"
 width="773.000000pt" height="435.000000pt" viewBox="0 0 773.000000 435.000000"
 preserveAspectRatio="xMidYMid meet">
<metadata>
Created by potrace 1.15, written by Peter Selinger 2001-2017
</metadata>
<g transform="translate(0.000000,435.000000) scale(0.100000,-0.100000)"
fill="black" stroke="none">
<path d="M1553 4075 c-488 -74 -917 -334 -1207 -729 -253 -345 -371 -771 -337
-1213 18 -236 72 -435 176 -648 338 -697 1088 -1100 1862 -1000 600 78 1114
446 1388 995 77 153 132 325 167 520 20 114 17 471 -5 585 -86 437 -273 775
-582 1045 -267 235 -547 370 -900 437 -113 21 -444 26 -562 8z m537 -310 c538
-106 982 -493 1154 -1006 58 -176 71 -259 71 -479 0 -219 -15 -310 -81 -503
-215 -620 -834 -1037 -1490 -1003 -227 12 -401 54 -579 140 -438 213 -744 608
-837 1081 -31 157 -31 415 0 570 53 268 165 498 344 705 231 269 606 471 947
510 111 13 372 4 471 -15z" fill="#BDD8F1" />
<path d="M1692 2989 c-177 -30 -338 -197 -398 -414 -25 -88 -32 -468 -11 -588
41 -236 202 -418 405 -457 87 -17 250 -8 326 19 169 60 282 188 317 358 10 50
10 66 1 75 -15 15 -132 23 -216 14 l-63 -7 -17 -62 c-33 -117 -97 -167 -216
-167 -114 0 -177 45 -221 157 -22 55 -23 70 -24 328 0 230 3 278 18 327 36
117 121 188 223 188 60 0 129 -22 160 -51 27 -25 59 -99 69 -156 l7 -43 128 0
c71 0 135 3 144 6 23 9 20 50 -9 141 -30 95 -66 153 -134 216 -114 106 -293
148 -489 116z"/>
<path d="M6520 3060 l0 -390 79 0 79 0 4 80 c3 70 6 83 30 106 l26 26 71 -106
71 -106 85 0 c46 0 87 5 90 10 4 6 -29 59 -73 118 -43 59 -91 126 -107 150
-28 42 -28 43 -8 65 10 12 52 58 91 103 40 44 72 86 72 92 0 8 -28 12 -89 12
l-88 0 -79 -91 -79 -92 -6 89 c-4 49 -7 142 -8 207 l-1 117 -80 0 -80 0 0
-390z"/>
<path d="M4235 3421 c-87 -15 -155 -83 -192 -192 -25 -76 -26 -311 0 -386 20
-57 83 -135 131 -161 49 -26 209 -24 261 5 67 36 116 105 130 186 l7 37 -80 0
-79 0 -6 -29 c-3 -15 -18 -42 -32 -60 -22 -26 -34 -31 -69 -31 -49 0 -79 19
-103 63 -26 48 -26 302 0 370 29 74 90 96 154 57 25 -15 36 -32 45 -65 l12
-45 66 0 c91 0 96 5 76 73 -23 78 -81 147 -141 166 -44 14 -134 20 -180 12z"/>
<path d="M4774 3211 c-48 -22 -91 -74 -100 -120 -9 -42 4 -51 74 -51 49 0 57
3 85 35 25 28 38 35 68 35 43 0 75 -24 85 -62 7 -32 2 -33 -116 -43 -47 -3
-92 -14 -120 -28 -112 -55 -122 -216 -17 -285 34 -23 51 -27 116 -27 54 0 86
5 110 18 31 15 36 16 43 2 7 -11 28 -15 90 -15 73 0 79 2 72 18 -4 9 -11 98
-15 198 -4 99 -12 199 -18 222 -13 47 -66 97 -121 112 -60 17 -190 12 -236 -9z
m212 -355 c-15 -78 -166 -93 -166 -17 0 42 31 63 102 70 70 7 74 3 64 -53z"/>
<path d="M5505 3214 c-16 -8 -37 -22 -46 -30 -22 -20 -29 -18 -29 11 0 24 -2
25 -70 25 l-70 0 0 -275 0 -275 75 0 75 0 2 196 3 197 28 21 c38 28 100 28
129 -2 22 -21 23 -32 28 -215 l5 -192 79 -3 79 -3 -5 214 c-4 203 -6 215 -29
257 -36 66 -78 90 -158 90 -40 0 -78 -6 -96 -16z"/>
<path d="M6022 3209 c-66 -33 -102 -83 -102 -142 0 -94 50 -139 200 -182 114
-32 130 -40 130 -65 0 -30 -54 -53 -109 -47 -37 4 -51 12 -76 41 -29 35 -32
36 -97 36 -64 0 -68 -1 -68 -23 0 -42 54 -112 106 -138 41 -20 64 -24 144 -24
114 0 175 20 220 71 26 30 30 43 30 90 0 101 -34 132 -200 179 -116 33 -130
40 -130 65 0 50 111 70 154 27 13 -13 25 -29 27 -36 5 -15 86 -26 123 -17 65
16 6 132 -86 171 -59 24 -212 21 -266 -6z"/>
<path d="M7103 3208 c3 -7 53 -124 112 -261 84 -193 106 -253 100 -274 -8 -35
-77 -103 -103 -103 -27 0 -42 -28 -42 -79 l0 -41 60 0 c63 0 107 16 147 52 23
21 96 175 241 511 l91 207 -88 0 -88 0 -48 -127 c-26 -71 -57 -148 -67 -173
l-19 -45 -54 145 c-29 80 -58 157 -64 173 -10 27 -12 27 -97 27 -65 0 -85 -3
-81 -12z"/>
<path d="M6240 1895 c0 -69 -2 -125 -4 -125 -2 0 -20 7 -39 15 -42 17 -123 20
-164 4 -86 -32 -133 -129 -133 -272 1 -128 33 -206 105 -255 40 -28 159 -31
207 -6 28 15 32 15 40 0 7 -12 25 -16 73 -16 l65 0 0 390 0 390 -75 0 -75 0 0
-125z m-42 -235 l32 -20 0 -119 c0 -117 -1 -120 -26 -140 -40 -31 -87 -27
-118 9 -57 69 -43 239 23 275 35 19 50 18 89 -5z"/>
<path d="M6755 2009 c-49 -28 -59 -78 -24 -123 16 -20 29 -26 60 -26 106 0
123 141 19 156 -19 2 -44 -1 -55 -7z"/>
<path d="M4245 1990 c-28 -4 -65 -14 -81 -23 -36 -19 -91 -79 -105 -114 -16
-42 -10 -107 14 -153 29 -60 86 -100 200 -145 106 -41 147 -75 147 -121 0 -50
-30 -69 -110 -69 -79 0 -103 15 -122 77 l-11 39 -71 -3 -71 -3 1 -43 c1 -57
44 -118 113 -159 132 -79 346 -42 404 69 75 147 -14 278 -240 352 -70 23 -103
55 -103 101 0 29 6 39 33 55 48 30 99 26 141 -10 19 -17 36 -41 38 -53 3 -20
8 -22 78 -22 l75 0 -3 33 c-5 70 -66 148 -137 177 -42 17 -130 24 -190 15z"/>
<path d="M4780 1860 l0 -70 -55 0 -55 0 0 -55 0 -55 54 0 53 0 7 -77 c3 -42 6
-110 6 -152 1 -165 76 -230 251 -218 108 7 121 16 117 79 l-3 51 -85 -2 c-120
-3 -121 -2 -128 179 l-5 140 107 0 106 0 0 55 0 55 -105 0 -105 0 0 70 0 70
-80 0 -80 0 0 -70z"/>
<path d="M7330 1801 c-92 -19 -162 -87 -187 -183 -39 -152 12 -303 120 -361
60 -31 194 -31 253 0 82 44 123 116 131 233 8 110 -14 181 -75 240 -61 59
-159 88 -242 71z m95 -131 c37 -14 67 -87 68 -164 1 -92 -36 -145 -101 -146
-67 0 -112 62 -112 158 0 80 54 161 107 162 6 0 23 -4 38 -10z"/>
<path d="M5300 1586 c0 -203 0 -204 28 -256 34 -65 66 -91 125 -97 67 -8 113
4 152 39 l35 30 0 -31 0 -31 75 0 75 0 0 275 0 275 -80 0 -80 0 0 -195 0 -195
-32 -20 c-44 -27 -99 -26 -124 1 -19 21 -21 50 -33 382 -1 27 -2 27 -71 27
l-70 0 0 -204z"/>
<path d="M6570 1730 l0 -60 75 0 75 0 0 -150 0 -150 -75 0 -75 0 0 -65 0 -65
225 0 225 0 0 65 0 65 -75 0 -75 0 0 210 0 210 -150 0 -150 0 0 -60z"/>
</g>
</svg>
